<svg width="32" height="32" viewBox="0 0 32 32" fill="none" xmlns="http://www.w3.org/2000/svg">
<path d="M13.7058 23.7829C13.7058 23.7829 12.2584 30.9283 3.46537 31.9019L2.79605 28.4803C11.1179 30.5447 13.7058 23.7829 13.7058 23.7829Z" fill="#0B5EBF"/>
<path d="M15.014 14.9259C15.014 14.9259 3.08129 13.6618 4.4596 6.41825C4.89873 4.11315 7.91835 2.93447 9.6485 3.3685C9.6485 3.3685 10.5444 0.228589 14.7086 0.835782C14.7086 0.835782 17.3366 1.09437 17.9197 3.99532C18.0984 4.9337 18.0197 5.90178 17.6915 6.80055C17.0712 8.55649 15.7192 12.6842 15.8588 14.9697C15.8588 14.9697 13.4089 12.3355 12.2882 9.66109C12.2884 9.66095 13.561 13.6154 15.014 14.9259Z" fill="#0B5EBF"/>
<path d="M16.7197 14.1526C16.7197 14.1526 18.4182 2.50725 25.7593 4.10592C28.0945 4.61414 29.1933 7.61398 28.6926 9.29336C28.6926 9.29336 31.864 10.2813 31.1006 14.3376C31.1006 14.3376 30.7467 16.9032 27.7692 17.3744C26.8068 17.5176 25.8229 17.408 24.9178 17.0568C23.1452 16.3869 18.9827 14.9201 16.6471 14.9786C16.6471 14.9786 19.4174 12.6696 22.1828 11.6635C22.1809 11.6622 18.1055 12.7742 16.7197 14.1526Z" fill="#0B5EBF"/>
<path d="M16.9828 15.892C16.9828 15.892 28.9154 17.1559 27.5373 24.4018C27.0982 26.7069 24.0786 27.8856 22.3484 27.4515C22.3484 27.4515 21.4526 30.5914 17.2884 29.9843C17.2884 29.9843 14.6603 29.7257 14.0772 26.8247C13.8988 25.8865 13.9776 24.9186 14.3057 24.02C14.9277 22.2613 16.2801 18.1331 16.1405 15.8476C16.1405 15.8476 18.5903 18.4818 19.7141 21.1557C19.7088 21.1584 18.4367 17.2038 16.9828 15.892Z" fill="#0B5EBF"/>
<path d="M15.2784 16.6665C15.2784 16.6665 13.5793 28.312 6.2403 26.7132C3.9056 26.2049 2.8063 23.2052 3.30702 21.5258C3.30702 21.5258 0.1361 20.5377 0.899052 16.4815C0.899052 16.4815 1.25294 13.916 4.23126 13.4446C5.19346 13.3014 6.17719 13.411 7.08209 13.7621C8.85453 14.4319 13.0172 15.8987 15.3521 15.8403C15.3521 15.8403 12.5818 18.1493 9.81649 19.1554C9.81638 19.1554 13.892 18.0448 15.2784 16.6665Z" fill="#0B5EBF"/>
</svg>
